# xmcd CD database file generated by OrangeCD 4.3
#
# Track frame offsets:
#	150
#	15282
#	30260
#	40137
#	59480
#	80547
#	93432
#	105105
#	118047
#	139440
#	166620
#	181400
#	194332
#
# Disc length: 2701 seconds
#
# Revision: 0
# Processed by: cddbd v1.4PL0 Copyright (c) Steve Scherf et al.
# Submitted via: OrangeCD 4.3
#
DISCID=990a8b0d
DTITLE=Dr. John - The Gold Collection
DYEAR=1998
DGENRE=Blues
TTITLE0=Zuzu Man
TTITLE1=Tipatina
TTITLE2=Woman is the Root of All Evil
TTITLE3=Shoo Ra
TTITLE4=Just Like a Mirror
TTITLE5=Cat and Mouse Game
TTITLE6=Baldheaded
TTITLE7=In the Night
TTITLE8=Mean Cheatin' Woman
TTITLE9=Bring Your Own Along
TTITLE10=Little Closer to my Home
TTITLE11=The Grass Looks Greener
TTITLE12=New Orleans
EXTD=
EXTT0=
EXTT1=
EXTT2=
EXTT3=
EXTT4=
EXTT5=
EXTT6=
EXTT7=
EXTT8=
EXTT9=
EXTT10=
EXTT11=
EXTT12=
PLAYORDER=
